<?xml version="1.0" encoding="utf-8"?>
<!-- Generator: Adobe Illustrator 18.1.0, SVG Export Plug-In . SVG Version: 6.00 Build 0)  -->
<svg version="1.1" id="レイヤー_1" xmlns="http://www.w3.org/2000/svg" xmlns:xlink="http://www.w3.org/1999/xlink" x="0px"
	 y="0px" viewBox="0 0 142 94" enable-background="new 0 0 142 94" xml:space="preserve">
<g>
	<polygon fill="#5E9CD4" points="82,55.9 69.2,74.2 60.5,68.1 57.5,72.5 70.5,81.5 86.3,58.9 	"/>
	<path fill="#5E9CD4" d="M140.7,64.6c0-4.1-1.7-7.9-4.4-10.6c-1.8-1.4-4-2.3-6.5-2.5c-7-0.6-13.3,4.6-13.9,11.6
		c-0.1,1.6-1.6,2.9-3.3,2.7c-1.6-0.1-2.9-1.6-2.7-3.3c0.9-10.3,10.1-18,20.4-17.1c3.1,0.3,6,1.3,8.5,2.9c0.5-1.5,0.8-3,0.8-4.7
		c0-6.7-4.4-12.4-10.5-14.3c-1.2,3.1-3.4,5.9-6.5,8c-0.9,0.7-6.3,4.6-13.6,2.9c-5.9-1.4-10.2,0.3-11.2,4.3c-0.3,1.4-1.6,2.3-2.9,2.3
		c-0.2,0-0.5,0-0.7-0.1c-1.6-0.4-2.6-2-2.2-3.6c1.5-6.2,7.8-11.3,18.4-8.7c4.9,1.2,8.3-1.6,8.5-1.7c0.1,0,0.1-0.1,0.2-0.2
		c2.9-2,4.7-4.8,5.1-7.8c0.1-0.5,0.1-1.1,0.1-1.7c-1.5-6.7-7.5-11.6-14.6-11.6c-0.2,0-0.4,0-0.6,0c-0.1,4.9-2,9.5-5.4,13
		c-0.6,0.6-1.4,0.9-2.1,0.9c-0.8,0-1.5-0.3-2.1-0.9c-1.2-1.2-1.2-3.1,0-4.2c2.6-2.6,3.8-6.1,3.7-9.6c-2.2-5.6-7.6-9.6-14-9.6
		c-0.1,0-0.3,0-0.4,0l0,0c-8,0-14.5,6.5-14.5,14.6l0,26.2c-0.7-0.1-1.5-0.1-2.3-0.1c-1.4,0-2.8,0.1-4.2,0.3l0-26.5
		c0-8-6.5-14.5-14.6-14.5l0,0c-0.1,0-0.3,0-0.4,0c-6.6,0-12.3,4.3-14.2,10.3c-0.1,0.8-0.2,1.6-0.2,2.4c0,3.4,1.4,6.6,3.8,9
		c2.4,2.4,5.6,3.7,9.1,3.7c0,0,0,0,0,0c1.6,0,3,1.3,3,3c0,1.7-1.3,3-3,3c0,0-0.1,0-0.1,0c-10.3,0-18.7-8.4-18.8-18.7
		c0-0.8,0.1-1.6,0.1-2.3c-0.1,0-0.2,0-0.3,0c-7.6,0-13.9,5.7-14.8,13.1c-0.5,5.2,2.2,10.4,7.2,12.7c1.5,0.7,2.1,2.5,1.4,4
		c-0.5,1.1-1.6,1.7-2.7,1.7c-0.4,0-0.9-0.1-1.3-0.3c-5.4-2.6-9-7.5-10.2-12.9c-5.5,2.2-9.5,7.6-9.5,13.9c0,2.6,0.7,5,1.8,7.1
		c2.9-1.5,6.3-2.1,10-1.2c5.4,1.3,8.1,5.6,11.3,9.8c4.2,5.4,14.6,4,14.9-3.7c0.2-3.9,6.2-3.9,6,0c-0.2,5.4-3,9.9-8.2,11.9
		c-4.6,1.7-11.2,1.7-15.1-1.7c-3.9-3.4-5.6-10-11.5-10.5C4.7,54.8,1.2,61,1.3,66.9c0.9,7.2,7,12.8,14.4,12.8l34,0
		c4.3,7.8,12.7,13.1,22.2,13.1c9.6,0,17.9-5.3,22.2-13.1l32,0c8,0,14.5-6.5,14.5-14.6l0,0C140.7,64.9,140.7,64.8,140.7,64.6z
		 M71.9,88c-11.4,0-20.7-9.3-20.7-20.7s9.3-20.7,20.7-20.7c11.4,0,20.7,9.3,20.7,20.7S83.3,88,71.9,88z"/>
</g>
</svg>
